<svg width="960" height="540" viewBox="0 0 960 540" xmlns="http://www.w3.org/2000/svg">
  <!-- Background -->
  <rect width="960" height="540" fill="#f8f9fa"/>
  
  <!-- Title -->
  <text x="480" y="35" text-anchor="middle" font-family="Arial, sans-serif" font-size="20" font-weight="bold" fill="#2c3e50">
    Push Campaign 工作流程：從人工猜測到數據驅動智能化
  </text>
  
  <!-- BEFORE Section (Left) -->
  <rect x="20" y="60" width="400" height="420" fill="#ffe6e6" stroke="#dc3545" stroke-width="2" rx="10"/>
  <text x="220" y="85" text-anchor="middle" font-family="Arial, sans-serif" font-size="16" font-weight="bold" fill="#dc3545">
    傳統 Push Campaign 流程
  </text>
  
  <!-- BEFORE Workflow Steps -->
  <circle cx="80" cy="130" r="25" fill="#e8f4fd" stroke="#007bff" stroke-width="2"/>
  <text x="80" y="135" text-anchor="middle" font-family="Arial, sans-serif" font-size="10" fill="#2c3e50">📱</text>
  <text x="80" y="165" text-anchor="middle" font-family="Arial, sans-serif" font-size="10" fill="#2c3e50">運營編輯</text>
  
  <rect x="155" y="105" width="80" height="50" fill="#f8f9fa" stroke="#6c757d" stroke-width="2" rx="8"/>
  <text x="195" y="125" text-anchor="middle" font-family="Arial, sans-serif" font-size="10" fill="#6c757d">🤔</text>
  <text x="195" y="140" text-anchor="middle" font-family="Arial, sans-serif" font-size="9" fill="#6c757d">憑經驗想標題</text>
  
  <rect x="280" y="105" width="80" height="50" fill="#fff3cd" stroke="#ffc107" stroke-width="2" rx="8"/>
  <text x="320" y="125" text-anchor="middle" font-family="Arial, sans-serif" font-size="10" fill="#856404">📝</text>
  <text x="320" y="140" text-anchor="middle" font-family="Arial, sans-serif" font-size="9" fill="#856404">手動測試</text>
  
  <rect x="155" y="190" width="80" height="50" fill="#f8d7da" stroke="#dc3545" stroke-width="2" rx="8"/>
  <text x="195" y="210" text-anchor="middle" font-family="Arial, sans-serif" font-size="10" fill="#dc3545">📊</text>
  <text x="195" y="225" text-anchor="middle" font-family="Arial, sans-serif" font-size="9" fill="#dc3545">效果不穩定</text>
  
  <rect x="280" y="190" width="80" height="50" fill="#d4edda" stroke="#28a745" stroke-width="2" rx="8"/>
  <text x="320" y="210" text-anchor="middle" font-family="Arial, sans-serif" font-size="10" fill="#28a745">🚀</text>
  <text x="320" y="225" text-anchor="middle" font-family="Arial, sans-serif" font-size="9" fill="#28a745">推送</text>
  
  <!-- BEFORE Arrows -->
  <path d="M 105 130 L 145 130" stroke="#6c757d" stroke-width="2" marker-end="url(#arrowhead-gray)"/>
  <path d="M 235 130 L 270 130" stroke="#6c757d" stroke-width="2" marker-end="url(#arrowhead-gray)"/>
  <path d="M 320 155 L 320 180" stroke="#6c757d" stroke-width="2" marker-end="url(#arrowhead-gray)"/>
  <path d="M 280 215 L 245 215" stroke="#6c757d" stroke-width="2" marker-end="url(#arrowhead-gray)"/>
  <path d="M 195 190 L 195 165" stroke="#6c757d" stroke-width="2" marker-end="url(#arrowhead-gray)"/>
  <path d="M 235 215 L 270 215" stroke="#6c757d" stroke-width="2" marker-end="url(#arrowhead-gray)"/>
  
  <!-- BEFORE Problems -->
  <rect x="50" y="280" width="320" height="120" fill="#ffffff" stroke="#dc3545" stroke-width="2" rx="8"/>
  <text x="210" y="305" text-anchor="middle" font-family="Arial, sans-serif" font-size="14" fill="#dc3545">
    ❌ Push Campaign 痛點
  </text>
  <text x="60" y="330" font-family="Arial, sans-serif" font-size="11" fill="#2c3e50">
    • 標題效果難預測：憑感覺創作，成功率不穩定
  </text>
  <text x="60" y="350" font-family="Arial, sans-serif" font-size="11" fill="#2c3e50">
    • 個人化程度低：一套標題推送所有用戶
  </text>
  <text x="60" y="370" font-family="Arial, sans-serif" font-size="11" fill="#2c3e50">
    • 歷史數據未善用：過往成功經驗難以複用
  </text>
  <!--<text x="60" y="390" font-family="Arial, sans-serif" font-size="11" fill="#2c3e50">-->
  <!--  • A/B測試耗時：手動測試週期長、成本高</text>  -->
  
  <!-- AFTER Section (Right) -->
  <rect x="540" y="60" width="400" height="420" fill="#e6ffe6" stroke="#28a745" stroke-width="2" rx="10"/>
  <text x="740" y="85" text-anchor="middle" font-family="Arial, sans-serif" font-size="16" font-weight="bold" fill="#28a745">
    AI 驅動 Push Campaign 系統
  </text>
  
  <!-- AFTER Workflow Steps -->
  <circle cx="600" cy="130" r="25" fill="#e8f4fd" stroke="#007bff" stroke-width="2"/>
  <text x="600" y="135" text-anchor="middle" font-family="Arial, sans-serif" font-size="10" fill="#2c3e50">📱</text>
  <text x="600" y="165" text-anchor="middle" font-family="Arial, sans-serif" font-size="10" fill="#2c3e50">運營編輯</text>
  
  <!-- Enhanced AI System -->
  <rect x="675" y="90" width="80" height="70" fill="#fff3cd" stroke="#ffc107" stroke-width="3" rx="8"/>
  <text x="715" y="110" text-anchor="middle" font-family="Arial, sans-serif" font-size="9" fill="#2c3e50">🤖</text>
  <text x="715" y="125" text-anchor="middle" font-family="Arial, sans-serif" font-size="8" fill="#2c3e50">AI標題助手</text>
  <text x="715" y="137" text-anchor="middle" font-family="Arial, sans-serif" font-size="7" fill="#2c3e50">+歷史數據</text>
  <text x="715" y="149" text-anchor="middle" font-family="Arial, sans-serif" font-size="7" fill="#2c3e50">+個人化</text>
  
  <!-- Data Analysis Engine -->
  <rect x="680" y="170" width="70" height="30" fill="#e1f5fe" stroke="#0288d1" stroke-width="2" rx="5"/>
  <text x="715" y="185" text-anchor="middle" font-family="Arial, sans-serif" font-size="7" fill="#2c3e50">📊 數據分析</text>
  <text x="715" y="195" text-anchor="middle" font-family="Arial, sans-serif" font-size="6" fill="#2c3e50">成功模式識別</text>
  
  <rect x="800" y="105" width="80" height="50" fill="#d1ecf1" stroke="#17a2b8" stroke-width="2" rx="8"/>
  <text x="840" y="125" text-anchor="middle" font-family="Arial, sans-serif" font-size="10" fill="#2c3e50">🎯</text>
  <text x="840" y="140" text-anchor="middle" font-family="Arial, sans-serif" font-size="8" fill="#2c3e50">智能A/B測試（未來）</text>
  
  <rect x="675" y="220" width="80" height="50" fill="#e1f5fe" stroke="#0288d1" stroke-width="2" rx="8"/>
  <text x="715" y="240" text-anchor="middle" font-family="Arial, sans-serif" font-size="10" fill="#2c3e50">👤</text>
  <text x="715" y="255" text-anchor="middle" font-family="Arial, sans-serif" font-size="9" fill="#2c3e50">個人化推送</text>
  
  <rect x="800" y="220" width="80" height="50" fill="#d1f2eb" stroke="#00d084" stroke-width="2" rx="8"/>
  <text x="840" y="240" text-anchor="middle" font-family="Arial, sans-serif" font-size="10" fill="#2c3e50">📈</text>
  <text x="840" y="255" text-anchor="middle" font-family="Arial, sans-serif" font-size="9" fill="#2c3e50">更佳轉換率</text>
  
  <!-- AFTER Arrows -->
  <path d="M 625 130 L 665 130" stroke="#007bff" stroke-width="3" marker-end="url(#arrowhead-blue)"/>
  <path d="M 755 130 L 790 130" stroke="#28a745" stroke-width="3" marker-end="url(#arrowhead-green)"/>
  <path d="M 840 155 L 840 210" stroke="#0288d1" stroke-width="3" marker-end="url(#arrowhead-cyan)"/>
  <path d="M 800 245 L 765 245" stroke="#00d084" stroke-width="3" marker-end="url(#arrowhead-money)"/>
  <path d="M 715 220 L 715 210" stroke="#ffc107" stroke-width="3" marker-end="url(#arrowhead-yellow)"/>
  <path d="M 755 245 L 790 245" stroke="#00d084" stroke-width="3" marker-end="url(#arrowhead-money)"/>
  
  <!-- AFTER Benefits -->
  <rect x="570" y="290" width="320" height="110" fill="#ffffff" stroke="#28a745" stroke-width="2" rx="8"/>
  <text x="730" y="315" text-anchor="middle" font-family="Arial, sans-serif" font-size="14" fill="#28a745">
    ✅ AI 智能化 Push 效益
  </text>
  <text x="580" y="335" font-family="Arial, sans-serif" font-size="10" fill="#2c3e50">
    • 數據驅動預測：基於歷史成功模式生成標題
  </text>
  <text x="580" y="350" font-family="Arial, sans-serif" font-size="10" fill="#2c3e50">
    • 超個人化：根據用戶興趣、偏好來生成專屬標題版本
  </text>
  <!--<text x="580" y="365" font-family="Arial, sans-serif" font-size="10" fill="#2c3e50">-->
  <!--  • 智能A/B測試：自動優化，持續學習改進-->
  <!--</text>-->
  <!--<text x="580" y="380" font-family="Arial, sans-serif" font-size="10" fill="#2c3e50">-->
  <!--  • 效果可預測：點擊率提升60%，轉換率翻倍-->
  <!--</text>-->
  <!--<text x="580" y="395" font-family="Arial, sans-serif" font-size="10" fill="#28a745">-->
  <!--  ➜ 結果：Push 效果提升 3 倍，用戶參與度大幅改善-->
  <!--</text>-->
  
  <!-- Transformation Arrow -->
  <path d="M 440 270 L 520 270" stroke="#ff6b35" stroke-width="5" marker-end="url(#arrowhead-transform)"/>
  <text x="480" y="250" text-anchor="middle" font-family="Arial, sans-serif" font-size="12" font-weight="bold" fill="#ff6b35">
    AI 轉型
  </text>
  <text x="480" y="295" text-anchor="middle" font-family="Arial, sans-serif" font-size="10" fill="#ff6b35">
    智能Push引擎
  </text>
  
  <!-- Arrow markers -->
  <defs>
    <marker id="arrowhead-blue" markerWidth="10" markerHeight="7" refX="9" refY="3.5" orient="auto">
      <polygon points="0 0, 10 3.5, 0 7" fill="#007bff"/>
    </marker>
    <marker id="arrowhead-green" markerWidth="10" markerHeight="7" refX="9" refY="3.5" orient="auto">
      <polygon points="0 0, 10 3.5, 0 7" fill="#28a745"/>
    </marker>
    <marker id="arrowhead-cyan" markerWidth="10" markerHeight="7" refX="9" refY="3.5" orient="auto">
      <polygon points="0 0, 10 3.5, 0 7" fill="#0288d1"/>
    </marker>
    <marker id="arrowhead-money" markerWidth="10" markerHeight="7" refX="9" refY="3.5" orient="auto">
      <polygon points="0 0, 10 3.5, 0 7" fill="#00d084"/>
    </marker>
    <marker id="arrowhead-yellow" markerWidth="10" markerHeight="7" refX="9" refY="3.5" orient="auto">
      <polygon points="0 0, 10 3.5, 0 7" fill="#ffc107"/>
    </marker>
    <marker id="arrowhead-gray" markerWidth="10" markerHeight="7" refX="9" refY="3.5" orient="auto">
      <polygon points="0 0, 10 3.5, 0 7" fill="#6c757d"/>
    </marker>
    <marker id="arrowhead-transform" markerWidth="10" markerHeight="7" refX="9" refY="3.5" orient="auto">
      <polygon points="0 0, 10 3.5, 0 7" fill="#ff6b35"/>
    </marker>
  </defs>
</svg>